<svg xmlns="http://www.w3.org/2000/svg" viewBox="0 0 128 128" role="img" aria-label="Conversation Navigator">
  <defs>
    <linearGradient id="bg" x1="18" y1="14" x2="112" y2="118" gradientUnits="userSpaceOnUse">
      <stop offset="0" stop-color="#10a37f"/>
      <stop offset="0.58" stop-color="#2563eb"/>
      <stop offset="1" stop-color="#111827"/>
    </linearGradient>
    <linearGradient id="rail" x1="36" y1="30" x2="92" y2="98" gradientUnits="userSpaceOnUse">
      <stop offset="0" stop-color="#ffffff"/>
      <stop offset="1" stop-color="#dbeafe"/>
    </linearGradient>
    <filter id="shadow" x="-20%" y="-20%" width="140%" height="140%">
      <feDropShadow dx="0" dy="8" stdDeviation="8" flood-color="#0f172a" flood-opacity="0.28"/>
    </filter>
  </defs>
  <rect width="128" height="128" rx="28" fill="url(#bg)"/>
  <path d="M32 35c0-7.18 5.82-13 13-13h38c7.18 0 13 5.82 13 13v58c0 7.18-5.82 13-13 13H45c-7.18 0-13-5.82-13-13V35z" fill="rgba(255,255,255,0.16)" filter="url(#shadow)"/>
  <path d="M47 37h32c3.31 0 6 2.69 6 6v4c0 3.31-2.69 6-6 6H47c-3.31 0-6-2.69-6-6v-4c0-3.31 2.69-6 6-6z" fill="url(#rail)"/>
  <path d="M47 60h22c3.31 0 6 2.69 6 6v4c0 3.31-2.69 6-6 6H47c-3.31 0-6-2.69-6-6v-4c0-3.31 2.69-6 6-6z" fill="#ffffff" opacity="0.86"/>
  <path d="M47 83h32c3.31 0 6 2.69 6 6v4c0 3.31-2.69 6-6 6H47c-3.31 0-6-2.69-6-6v-4c0-3.31 2.69-6 6-6z" fill="#ffffff" opacity="0.72"/>
  <path d="M97 40l13 13-13 13" fill="none" stroke="#ffffff" stroke-width="9" stroke-linecap="round" stroke-linejoin="round"/>
  <path d="M96 53h-21" fill="none" stroke="#ffffff" stroke-width="9" stroke-linecap="round"/>
</svg>
